<svg width="22" height="22" viewBox="0 0 22 22" fill="none" xmlns="http://www.w3.org/2000/svg">
<path d="M9.14476 12.8473C10.4933 14.2442 12.125 15.3227 13.9252 16.0071L16.3607 14.0281C16.4329 13.9773 16.5185 13.9501 16.6062 13.9501C16.6938 13.9501 16.7794 13.9773 16.8516 14.0281L21.3737 17.0032C21.5454 17.1086 21.6907 17.2533 21.7982 17.4259C21.9057 17.5985 21.9724 17.7943 21.9931 17.9977C22.0138 18.2012 21.9878 18.4068 21.9173 18.5982C21.8468 18.7897 21.7337 18.9618 21.5869 19.101L19.468 21.2383C19.1645 21.5445 18.7916 21.7692 18.3824 21.8923C17.9732 22.0155 17.5405 22.0333 17.123 21.9442C12.9576 21.0657 9.11836 19.0083 6.04392 16.0071C3.03771 12.9761 0.957424 9.11935 0.0554183 4.90479C-0.0336882 4.485 -0.0150904 4.04883 0.109409 3.63853C0.233909 3.22824 0.460088 2.85775 0.766028 2.56295L2.96246 0.399227C3.09838 0.256597 3.26413 0.147215 3.44732 0.0792704C3.6305 0.011326 3.82636 -0.01342 4.02024 0.00688528C4.21412 0.0271906 4.40098 0.0920211 4.56684 0.196522C4.73271 0.301024 4.87327 0.442488 4.97801 0.610322L7.98841 5.16866C8.04033 5.24024 8.06836 5.32696 8.06836 5.41604C8.06836 5.50512 8.04033 5.59184 7.98841 5.66342L6.00516 8.09761C6.69353 9.89914 7.76601 11.5216 9.14476 12.8473Z" fill="#0084FF"/>
</svg>
