<svg width="19" height="27" viewBox="0 0 19 27" fill="none" xmlns="http://www.w3.org/2000/svg">
<path d="M9.49998 27C7.78583 25.3843 6.19696 23.6129 4.74999 21.7045C2.57857 18.8386 1.19278e-06 14.5704 1.19278e-06 10.5032C-0.000940524 8.42606 0.555761 6.39529 1.59965 4.66789C2.64354 2.9405 4.1277 1.59414 5.86429 0.799205C7.60088 0.00426924 9.51185 -0.20351 11.3553 0.202163C13.1988 0.607836 14.892 1.60873 16.2205 3.07816C17.1051 4.05126 17.8061 5.20855 18.2832 6.48306C18.7603 7.75757 19.0039 9.12398 19 10.5032C19 14.5704 16.4214 18.8386 14.25 21.7045C12.803 23.6129 11.2141 25.3843 9.49998 27ZM9.49998 6.00409C8.42017 6.00409 7.38459 6.47811 6.62105 7.32186C5.85751 8.16561 5.42856 9.30998 5.42856 10.5032C5.42856 11.6965 5.85751 12.8408 6.62105 13.6846C7.38459 14.5283 8.42017 15.0023 9.49998 15.0023C10.5798 15.0023 11.6154 14.5283 12.3789 13.6846C13.1424 12.8408 13.5714 11.6965 13.5714 10.5032C13.5714 9.30998 13.1424 8.16561 12.3789 7.32186C11.6154 6.47811 10.5798 6.00409 9.49998 6.00409Z" fill="#0084FF"/>
</svg>
